<svg width="55" height="55" viewBox="0 0 55 55" fill="none" xmlns="http://www.w3.org/2000/svg">
<g clip-path="url(#clip0_2051_9158)">
<path d="M27.5 55C42.7397 55 55 42.7397 55 27.5C55 12.2603 42.7397 0 27.5 0C12.2603 0 0 12.2603 0 27.5C0 42.7397 12.2603 55 27.5 55Z" fill="#632ADB"/>
<path d="M35.0626 31.854C35.0626 27.8437 32.6563 26.4687 27.8438 25.8959C24.4063 25.4374 23.7188 24.5209 23.7188 22.9165C23.7188 21.3122 24.8647 20.2812 27.1563 20.2812C29.2188 20.2812 30.3647 20.9687 30.9376 22.6874C31.0522 23.0312 31.396 23.2603 31.7397 23.2603H33.5729C34.0313 23.2603 34.3751 22.9165 34.3751 22.4584V22.3437C33.9166 19.8228 31.8541 17.8749 29.2188 17.6459V14.8959C29.2188 14.4374 28.8751 14.0937 28.3022 13.979H26.5835C26.1251 13.979 25.7813 14.3228 25.6666 14.8959V17.5312C22.2291 17.9896 20.0522 20.2812 20.0522 23.1459C20.0522 26.9271 22.3438 28.4165 27.1563 28.9896C30.3647 29.5624 31.396 30.2499 31.396 32.0834C31.396 33.9168 29.7916 35.1771 27.6147 35.1771C24.6354 35.1771 23.6041 33.9165 23.2604 32.1978C23.146 31.7396 22.8022 31.5103 22.4585 31.5103H20.5104C20.0522 31.5103 19.7085 31.854 19.7085 32.3124V32.4271C20.1666 35.2915 22.0001 37.354 25.7813 37.9271V40.6771C25.7813 41.1353 26.1251 41.479 26.6979 41.5937H28.4166C28.8751 41.5937 29.2188 41.2499 29.3335 40.6771V37.9271C32.771 37.354 35.0626 34.9478 35.0626 31.854Z" fill="white"/>
<path fill-rule="evenodd" clip-rule="evenodd" d="M11.4582 21.8854C8.13512 30.7085 12.7185 40.6772 21.656 43.8854C21.9998 44.1147 22.3435 44.5729 22.3435 44.9166V46.5209C22.3435 46.7501 22.3435 46.8647 22.2289 46.9792C22.1145 47.4376 21.656 47.6667 21.1976 47.4376C14.781 45.3751 9.85387 40.4479 7.79137 34.0313C4.35386 23.146 10.3123 11.5729 21.1976 8.1354C21.3123 8.021 21.5414 8.021 21.656 8.021C22.1145 8.1354 22.3435 8.47915 22.3435 8.93757V10.5416C22.3435 11.1147 22.1145 11.4585 21.656 11.6876C16.9582 13.4063 13.177 17.0729 11.4582 21.8854ZM32.7707 8.59382C32.8851 8.1354 33.3435 7.90632 33.802 8.1354C40.1039 10.1979 45.1457 15.1251 47.2081 21.6563C50.6456 32.5416 44.6873 44.1147 33.802 47.5522C33.6873 47.6667 33.4582 47.6667 33.3435 47.6667C32.8851 47.5522 32.656 47.2084 32.656 46.7501V45.146C32.656 44.5729 32.8851 44.2291 33.3435 44.0001C38.0414 42.2813 41.8226 38.6147 43.5414 33.8022C46.8644 24.9791 42.281 15.0104 33.3435 11.8022C32.9998 11.5729 32.656 11.1147 32.656 10.6563V9.05225C32.656 8.8229 32.656 8.7085 32.7707 8.59382Z" fill="white"/>
</g>
<defs>
<clipPath id="clip0_2051_9158">
<rect width="55" height="55" fill="white"/>
</clipPath>
</defs>
</svg>
