<svg width="24" height="24" viewBox="0 0 24 24" fill="none" xmlns="http://www.w3.org/2000/svg">
<path d="M15.9826 3.00302C15.7086 2.99609 15.4229 3.00088 15.1494 3.01954C14.771 3.04513 14.3259 3.11229 13.9671 3.16933C13.4879 3.24556 13.0679 3.33245 12.6009 3.45238C9.2091 4.32659 6.06889 7.17043 4.68828 10.3655C3.571 12.9509 3.74477 15.7904 5.72133 17.9114C7.8125 20.1561 11.5279 21.2979 14.5332 21.1764C15.8994 21.1215 17.335 20.7542 18.3648 19.8107C19.4373 18.8278 20.1154 17.1385 19.464 15.7462C19.1404 15.0543 18.5695 14.5218 17.948 14.0969C17.7022 13.9285 17.4608 13.7883 17.1985 13.647C16.8179 13.4423 16.3915 13.2893 16.0322 13.0473C15.9501 12.9919 15.6804 12.8336 15.6995 12.6977C15.787 12.0623 16.6281 12.2845 16.9986 12.4146C17.9208 12.7382 19.1212 13.4162 19.6473 12.1481C19.9677 11.3746 19.8941 10.4418 19.7971 9.6326C19.7284 9.05903 19.6314 8.47054 19.464 7.9167C19.4533 7.88099 19.3867 7.67203 19.3307 7.58354C19.2353 7.43269 19.0834 7.31648 18.9474 7.18375C19.3744 6.93695 19.747 6.60592 19.8803 6.16775C20.0162 5.71999 19.972 5.20239 19.7971 4.76849C19.7252 4.58992 19.4698 4.3074 19.3307 4.1688C18.4954 3.33777 17.118 3.0302 15.9826 3.00302ZM17.9149 4.51849C18.053 4.54568 17.924 4.51475 18.5311 4.75196C18.311 4.58138 18.0391 4.58618 17.7817 4.55207C17.8291 4.55207 17.8696 4.50996 17.9149 4.51849ZM15.0828 6.10112C15.4096 6.06487 15.7459 6.08993 16.0823 6.11765C16.1249 6.51637 16.3232 6.90283 16.6654 7.16723C16.9949 7.38151 16.8872 7.13152 16.9986 7.38365C17.0786 7.56489 17.3696 7.51797 17.5652 7.55049C17.706 7.57394 17.8552 7.56168 17.9981 7.55049C18.2806 7.5281 18.5668 7.37991 18.8478 7.23386C18.9773 7.37458 19.1207 7.50945 19.214 7.66723C19.3771 7.94229 19.4021 8.42683 19.4474 8.73334C19.5855 9.67524 19.6799 10.7307 19.4139 11.6651C18.948 13.3032 17.4794 11.7973 16.432 11.6651C15.8382 11.5894 15.134 11.9343 15.0332 12.5809C14.8936 13.4727 16.1702 13.945 16.7987 14.3304C17.7843 14.9338 19.0034 15.921 18.6644 17.2286C18.586 17.5298 18.456 17.8272 18.2977 18.0948C18.1473 18.3485 17.964 18.5762 17.7481 18.7777C17.3803 19.1215 16.925 19.3709 16.449 19.5277C15.8349 19.7292 15.1596 19.791 14.5167 19.7771C13.6063 19.7579 12.7086 19.5938 11.8349 19.3443C10.5945 18.9898 9.35036 18.4498 8.31997 17.662C7.82529 17.2835 7.36421 16.8555 7.00386 16.3459C4.85353 13.3064 7.54331 9.64433 10.119 7.9167C11.6398 6.89697 13.2624 6.30368 15.0828 6.10112Z" fill="#C4C4C4" fill-opacity="0.45"/>
<path d="M14 15.2132C13.6135 15.2638 13.2404 15.4621 12.984 15.7963C12.8065 16.0213 12.8737 16.3779 12.7841 16.629C12.7409 16.7489 12.6652 16.8523 12.6007 16.9621C12.5762 17.0037 12.6247 17.0645 12.6173 17.1119C12.5704 17.4307 12.5901 17.856 12.8673 18.0783C13.0037 18.1876 13.1274 18.2996 13.2836 18.3779C13.5522 18.5128 14.0784 18.3033 14.2665 18.0949C14.4083 17.9376 14.4483 17.7441 14.5 17.5453C14.5011 17.6076 14.5373 17.6625 14.5331 17.7281C14.5315 17.7516 14.6285 17.6919 14.6162 17.7116C14.5517 17.8214 14.4014 17.9184 14.4163 18.0448C14.4259 18.122 14.5725 18.0325 14.6498 18.0448C14.6876 18.0511 14.7132 18.0837 14.7495 18.0949C14.9201 18.1476 15.049 18.0597 15.1663 17.9451C15.2175 17.8944 15.3326 17.8587 15.2996 17.7953C15.145 17.4968 15.2964 17.783 15.3993 17.645C15.9121 16.9776 15.8001 16.0255 15.1327 15.5128C14.799 15.2564 14.3865 15.1625 14 15.2132ZM13.9669 16.7788C14.0879 16.8433 14.194 16.9408 14.2996 17.0288C14.1039 17.0469 13.806 17.21 13.6834 17.0288C13.5917 16.8928 13.8747 16.8486 13.9168 16.8289C13.9424 16.8166 13.9419 16.7654 13.9669 16.7788ZM14.4499 16.9285C14.5309 16.9376 14.6663 17.0122 14.6663 17.0122C14.6663 17.0122 15.1636 17.4349 15.033 17.3283C14.8795 17.2041 14.6882 17.1274 14.5 17.0618C14.4984 17.0325 14.4163 16.9253 14.4499 16.9285ZM14.3332 16.9786C14.3475 16.9818 14.3561 17.0021 14.3667 17.0122C14.3571 17.0112 14.3433 17.0288 14.3332 17.0288C14.3278 17.0064 14.3193 16.976 14.3332 16.9786Z" fill="#C4C4C4" fill-opacity="0.45"/>
<path d="M10.9854 12.5478C10.9268 12.4566 10.7588 12.551 10.6522 12.5643C10.463 12.5883 10.2951 12.6416 10.1192 12.7141C9.43634 12.9966 8.92994 13.7712 8.93634 14.5132C8.94487 15.4951 9.85905 16.0793 10.769 16.0126C11.1197 15.9865 11.4801 15.8634 11.6682 15.5462C11.7002 15.4918 11.6837 15.422 11.7018 15.3629C12.1704 15.1347 12.5563 14.7541 12.6011 14.1971C12.6688 13.358 12.0408 12.632 11.2018 12.5643C10.9779 12.5483 11.1282 12.7695 10.9854 12.5478ZM11.0686 14.3133C11.1362 14.3383 11.1293 14.4289 11.1688 14.4801C11.1544 14.5793 11.1368 14.6795 11.0851 14.7632C11.0803 14.7717 10.8894 14.9833 10.8687 14.8799C10.8537 14.8037 10.9646 14.7456 10.9854 14.68C11.0035 14.6214 10.882 14.2445 11.0686 14.3133ZM11.2183 15.5126C11.2093 15.5276 11.2167 15.5532 11.2018 15.5627C11.1768 15.5787 11.1874 15.5643 10.9518 15.5958C11.052 15.6043 11.1224 15.5238 11.2183 15.5126Z" fill="#C4C4C4" fill-opacity="0.45"/>
<path d="M11.8352 7.96673C11.0138 8.1517 10.5004 8.97793 10.6854 9.79936C10.7035 9.88785 10.9285 9.76151 10.7019 9.88251C10.7019 9.88251 10.7254 10.0387 10.752 10.132C10.8272 10.3921 10.9407 10.6256 11.1188 10.8319C11.5644 11.3484 12.0708 11.7109 12.8342 11.4817C13.0356 11.4209 13.2249 11.3303 13.4008 11.2151C13.541 11.1229 13.7734 10.5339 13.8341 10.3655C14.0836 9.66716 14.2393 8.41876 13.2339 8.24978C13.171 8.23912 13.1268 8.27962 13.0676 8.28336C12.7206 8.01523 12.2963 7.86278 11.8352 7.96673ZM12.3181 8.76631C12.2963 8.80522 12.2526 8.82548 12.235 8.86652C12.2078 8.92782 12.2025 8.99978 12.1849 9.06588C12.1087 9.0808 12.0303 9.10159 11.9514 9.08294C11.9237 9.07601 11.912 9.05842 11.8848 9.04936C11.8523 9.0387 11.7558 9.03443 11.7851 9.0163C11.9802 8.89583 12.1428 8.81215 12.3181 8.76631ZM12.7846 9.09946C12.8011 9.0984 12.9829 9.10373 12.9344 9.18262C12.8437 9.33028 12.7265 9.24712 12.6177 9.14957C12.6726 9.13251 12.7291 9.10213 12.7846 9.09946Z" fill="#C4C4C4" fill-opacity="0.45"/>
</svg>
