<svg width="182" height="49" viewBox="0 0 182 49" fill="none" xmlns="http://www.w3.org/2000/svg">
<path d="M7.72472 28.5255L5.21817 26.6647L14.7867 25.1101L9.7088 20.8672L14.3886 18.0771L1.8186e-05 19.866L7.06202 16.4505L4.50323 14.0779L6.89634 13.4318L3.2393 12.6232L7.93528 10.3469L5.44134 8.49555C8.82921 7.482 11.1745 5.30441 14.6072 4.22784C37.3301 -2.89325 93.6338 2.6057 120.493 2.16109C128.87 2.02428 166.531 -1.71805 170.557 0.967729C171.774 1.77904 171.531 3.51824 172.275 4.09304C173.083 4.71486 175.18 4.1759 176.825 5.75092C177.552 6.4478 178.022 10.3986 179.643 11.5409C175.095 12.7695 180.303 15.1886 176.34 18.2825L181.199 18.5306L175.235 20.3819L176.551 23.2164L173.099 25.051L177.473 27.2534L179.768 36.7055L177.363 38.0083L178.761 40.364C175.643 40.7975 174.256 36.6548 171.53 40.2663L176.928 42.4125L177.845 45.4707C157.198 47.7141 136.6 48.8647 115.819 48.8748C89.5886 48.8812 50.5458 49.4595 25.6383 46.2747C19.4083 45.4761 9.83962 45.4865 11.9423 38.4474L8.30326 38.627C13.3093 33.1948 5.79564 33.2237 0.701066 31.9793L7.73895 28.5652L7.72472 28.5255Z" fill="#7959FF" style="fill:#7959FF;fill:color(display-p3 0.4745 0.3490 1.0000);fill-opacity:1;"/>
</svg>
