<svg width="24" height="24" viewBox="0 0 24 24" fill="none" xmlns="http://www.w3.org/2000/svg">
<path d="M5.69729 5.02596C4.92609 4.87691 4.17533 5.38498 4.02591 6.1564C3.87702 6.92787 4.38503 7.66211 5.15676 7.81117C5.95733 7.97191 6.77782 8.14161 7.59778 8.15525C9.06732 8.17957 10.5647 7.96299 12.0211 7.79476C14.6802 7.48774 17.3283 7.11897 20 6.94281C17.1438 6.54735 14.2734 6.40129 11.415 6.02533C10.2202 5.86821 9.05684 5.60062 7.87618 5.36999C7.15478 5.22907 6.42079 5.15991 5.69729 5.02596Z" fill="white"/>
<path d="M15.0157 16.5511C15.0568 17.3178 15.3051 18.084 15.5088 18.8391C15.7017 19.5915 16.8744 20.101 18.1038 19.983C19.3332 19.8646 20.1652 19.1624 19.9722 18.4099C19.7945 17.6783 19.6703 16.939 19.4013 16.2171C18.9192 14.9246 18.3107 13.6444 17.8962 12.3403C17.123 9.90792 16.6241 7.46184 16.1835 5C15.7699 7.48472 15.4502 9.97249 15.2493 12.4674C15.1403 13.8203 14.9431 15.1961 15.0157 16.5511Z" fill="white"/>
<path d="M5.0933 19.2342C4.74517 19.962 5.40033 20.7278 6.57451 20.9435C7.74869 21.1593 8.98448 20.7374 9.33262 20.0096C9.73142 19.1947 10.0358 18.3514 9.99661 17.493C9.94365 16.3322 9.57582 15.1404 9.28154 13.9953C8.68138 11.66 7.88475 9.34747 7.4173 7C6.96015 9.72631 7.00731 12.48 6.39578 15.1982C6.23692 15.9042 5.97018 16.5763 5.73171 17.2716C5.50714 17.9265 5.3933 18.589 5.0933 19.2342Z" fill="white"/>
</svg>
