<svg width="123" height="119" viewBox="0 0 123 119" fill="none" xmlns="http://www.w3.org/2000/svg">
<path d="M46.397 0.670932C70.5628 -3.65593 100.447 13.5839 112.223 34.0012C165.524 126.15 3.98772 154.139 0.0395078 63.6805C-1.04965 37.9221 20.5294 5.26822 46.397 0.670932Z" fill="#8A63D2"/>
<path d="M59.7446 31.8762C52.3711 33.554 46.039 41.9584 44.4028 49.0081C44.0628 50.4311 43.9142 51.9313 43.9992 53.3909C44.5304 61.4148 52.6476 63.3925 57.2799 68.5314C59.9785 71.5105 60.2121 74.6384 60.5946 78.4909C60.4884 73.1679 60.4458 70.346 56.4934 66.2726C52.4561 62.129 45.8266 59.026 46.6553 52.262C47.4203 46.204 53.6675 38.2885 59.936 36.9891C61.721 36.619 63.5694 37.1604 65.3119 37.4541C67.3518 37.7945 69.5618 38.1374 70.9642 39.7781C71.9417 40.9058 73.6204 41.0237 74.7466 40.0437C75.8728 39.0637 76.0004 37.3202 75.0229 36.1923C72.9405 33.816 70.2417 32.755 67.1818 32.2081C64.7594 31.7741 62.167 31.3226 59.7446 31.8762Z" fill="white"/>
<path d="M75.8074 42.7664C74.4262 43.3427 73.7674 44.9073 74.3411 46.2857C75.5098 49.1329 76.0835 52.3449 75.4036 55.3829C74.2986 60.366 71.1327 64.7236 70.559 69.8595C70.3677 71.687 70.5589 73.3401 71.0264 75.1038C70.8989 73.3508 70.92 71.7592 71.43 70.0593C73.4699 63.1898 80.1421 58.4757 80.7159 51.0005C80.9071 48.6276 80.2483 46.3839 79.3346 44.2271C78.7609 42.8489 77.1886 42.1897 75.8074 42.7664Z" fill="white"/>
<path d="M62.8678 76.4999C65.0139 77.2202 62.8465 76.5105 62.3365 76.5657C60.8491 76.6805 59.7656 77.9321 59.8718 79.4216C59.9781 80.9112 61.2317 82.0586 62.7191 81.9439C66.034 80.2312 64.3127 81.0196 66.0551 80.2185C67.0326 79.7637 64.1428 81.3255 63.2716 81.9439C63.1441 82.0289 63.5903 81.9248 63.7178 81.878C63.8665 81.8291 64.2491 81.504 64.3979 81.4127C65.0991 80.9431 65.9064 80.5925 66.6502 80.1526C66.9689 79.955 67.9253 79.3919 67.5853 79.5534C65.9491 80.3183 69.3701 78.4909 69.3701 78.4909C69.3701 78.4909 67.6278 78.0064 66.3104 77.6941C66.2891 77.6877 66.2678 77.7004 66.2466 77.6941C65.5028 77.4667 64.7591 77.0906 64.0578 76.7655C63.9091 76.6954 63.4842 76.5254 63.3354 76.4999C63.1867 76.4744 62.719 76.451 62.8678 76.4999Z" fill="white"/>
<path d="M63.7804 82.609C62.2929 82.6069 61.0604 83.8372 61.0604 85.331C61.0604 86.8249 62.2291 87.9851 63.7166 87.9872C66.5215 86.3914 65.0767 87.1903 66.5216 86.3935C67.3503 85.9281 64.9492 87.4623 64.1842 88.0531C64.0993 88.1295 64.3966 88.0233 64.524 87.9872C64.8215 87.8958 65.1191 87.6259 65.3953 87.456C65.9691 87.0735 66.6065 86.8737 67.1802 86.4594C67.4352 86.2702 68.2639 85.7284 67.9664 85.8623C66.5427 86.521 69.3689 84.7998 69.3689 84.7998C69.3689 84.7998 67.6901 83.9945 66.5852 83.7374C66.1602 83.6375 67.4352 83.9987 67.7114 84.3344C67.9027 84.5767 67.0741 84.1772 66.7766 84.0688C66.6066 84.0072 66.4792 83.8903 66.3092 83.8032C65.8204 83.5312 65.4166 83.102 64.9279 82.8088C64.7154 82.6792 63.9718 82.5028 64.1842 82.609C65.8842 83.3931 64.2266 82.5942 63.7804 82.609Z" fill="white"/>
<path d="M63.7168 89.7805C62.2931 90.2098 61.4432 91.6696 61.8682 93.0996C62.2931 94.5318 63.8233 95.3882 65.247 94.9589C65.7994 93.854 66.373 92.7448 66.9042 91.6398C65.8417 91.0172 64.8005 90.401 63.7168 89.7805Z" fill="white"/>
<path d="M42.6183 25.8334C42.6183 25.8334 43.192 28.4866 44.1482 30.2825C44.6369 31.23 43.4895 28.1661 42.8733 27.2943C42.5758 26.8795 43.0433 28.324 43.1495 28.8214C43.362 29.8163 43.617 30.9789 43.9357 31.9425C44.127 32.499 44.7218 34.1754 44.5943 33.6025C44.0418 31.0088 44.5518 33.5872 45.6568 34.6649C46.783 35.666 48.5256 35.5751 49.5243 34.4658C50.523 33.3566 50.4168 31.6155 49.3118 30.6144C48.3131 29.892 48.6742 30.1125 48.3129 29.8839C48.3342 29.899 48.2494 29.873 48.2494 29.8839C48.4194 30.1013 47.5056 29.5966 47.1231 29.4192C46.3369 29.0414 45.4867 28.3809 44.8068 27.8255C44.4243 27.5163 43.2558 26.6398 43.6807 26.8958C45.5932 28.0786 42.6183 25.8334 42.6183 25.8334Z" fill="white"/>
<path d="M30.25 32.6731C30.25 32.6731 31.5887 33.4827 32.1199 33.8681C33.0974 34.5785 33.9263 35.2017 35.4987 36.1261C35.6262 36.2013 35.6472 36.2536 35.7747 36.3252C36.4122 36.7761 37.0712 37.2291 37.6237 37.6533C38.2186 38.1065 39.9609 39.4626 39.3447 39.0478C36.2848 36.9722 39.3448 39.0493 41.2784 39.9773C42.6384 40.5865 44.2532 39.9471 44.8694 38.5829C45.4857 37.2185 44.8271 35.6726 43.4672 35.0636C36.8587 33.872 39.7696 34.6631 36.901 33.8681C35.4136 33.4608 39.9609 34.1512 41.4696 34.2003C42.2558 34.2249 39.9185 34.0309 39.1535 33.9347C37.9211 33.7797 35.9447 33.4474 34.7123 33.2706C33.9686 33.1648 31.7163 32.8614 32.46 33.005C36.1149 33.7268 30.25 32.6731 30.25 32.6731Z" fill="white"/>
<path d="M37.772 43.6958C37.602 43.7219 37.2409 43.9597 37.0922 44.0279C36.4122 44.3709 35.6472 44.4729 34.9672 44.8248C34.7123 44.9567 33.9684 45.3687 34.2446 45.2895C35.6895 44.873 32.9059 46.02 32.9059 46.02C32.9059 46.02 34.2658 47.1148 35.2432 47.5474C35.6257 47.7255 34.4783 47.0532 34.2446 46.6841C34.0958 46.4529 34.7548 47.0003 34.9672 47.1488C35.0947 47.2342 35.2008 47.3067 35.307 47.4144C35.7108 47.8016 36.0934 48.3373 36.4971 48.7425C36.6671 48.9182 37.2834 49.2261 37.0922 49.0746C35.7322 48.0117 37.1559 49.0804 37.5596 49.1411C39.0258 49.411 40.4069 48.4193 40.6831 46.9497C40.9594 45.4801 39.9606 44.0985 38.4944 43.8288C35.6895 44.9164 37.0921 44.3647 35.7109 44.8913C34.861 45.2041 37.3258 44.2124 38.0908 43.7623C38.1971 43.7022 37.8783 43.6758 37.772 43.6958Z" fill="white"/>
<path d="M62.9957 40.5085C59.0221 48.791 60.892 46.1892 59.0221 48.7425C59.6383 48.2113 60.2121 47.6148 60.9346 47.2154C61.6358 46.8267 62.4008 46.4897 63.1233 46.1529C63.3358 46.0605 63.8456 45.7777 63.7181 45.9538C60.9132 49.767 63.7393 45.9238 64.5256 45.6882C65.9493 45.2715 66.7992 43.7365 66.3742 42.3015C65.9705 40.8665 64.4406 40.092 62.9957 40.5085ZM59.0221 48.7425C57.5134 50.7151 61.2744 43.5701 61.8694 40.8406C61.9544 40.4035 60.9983 41.1589 60.5945 41.3718C60.2333 41.5767 59.872 41.766 59.5321 42.0359C58.9371 42.5233 58.342 43.2768 57.8746 43.8952C56.5146 45.732 55.516 47.8261 54.496 49.8715C54.156 50.5744 53.731 51.2727 53.6247 52.0629C53.476 53.2261 53.8799 54.3855 54.3048 55.4494C54.4111 55.7692 54.5172 56.6755 54.6872 56.3791C54.9847 55.8916 54.7722 56.4173 54.9634 56.1135C54.8784 55.9881 54.8361 55.5875 54.8361 55.3166C54.7936 54.9586 54.8361 54.613 54.8361 54.2541C54.8148 53.65 54.8361 52.9478 55.0911 52.3948C55.4735 51.6042 56.4083 50.9988 57.0245 50.4027C57.6195 49.8084 58.3634 49.362 59.0221 48.8091C58.9796 48.8422 59.0433 48.7136 59.0221 48.7425ZM54.9634 56.1135C54.9847 56.144 54.8997 56.3538 54.9634 56.3128C55.2397 56.099 55.3249 55.9375 55.6861 55.5822C56.1748 54.4199 56.0896 54.3085 54.9634 56.1135ZM55.6861 55.5822C55.3886 56.2968 55.0272 57.1759 55.0272 57.1759C55.0272 57.1759 58.2358 53.6638 59.7445 51.3987C60.807 49.7761 57.7048 53.5793 55.6861 55.5822Z" fill="white"/>
</svg>
