<svg width="24" height="24" viewBox="0 0 24 24" fill="none" xmlns="http://www.w3.org/2000/svg">
<path d="M7.44291 13.7243C6.6558 13.6771 5.76704 13.7517 5.10951 14.2363C4.1615 14.9339 3.86285 16.5534 4.05553 17.6531C4.28097 18.9398 5.17792 20.1252 6.38893 20.6339C8.22328 21.4042 10.5788 20.4398 11.1608 18.4961C11.5008 17.3617 11.1564 15.996 10.062 15.4103C9.96467 15.3582 9.84905 15.3573 9.74597 15.3202C9.75608 15.2571 9.82015 15.22 9.82112 15.1545C9.83075 14.4324 9.26329 13.8394 8.54169 13.8298C8.35094 13.8259 8.44777 14.0176 8.34564 13.8144C8.323 13.7691 8.24593 13.8187 8.19535 13.8144C8.14284 13.81 8.08263 13.8052 8.02964 13.7994C7.83262 13.7782 7.64089 13.7363 7.44291 13.7243ZM9.68575 15.4854C10.0263 15.6791 10.3207 15.9401 10.4984 16.2985C10.7113 16.7268 10.747 17.22 10.6492 17.6835C10.3601 19.0501 8.9733 19.8324 7.63849 19.5048C6.75021 19.2866 6.09557 18.3472 6.14808 17.4426C6.16783 17.103 6.33065 16.7489 6.50936 16.4638C6.52044 16.4464 6.54356 16.4392 6.55464 16.419C6.84126 16.3872 7.09271 16.327 7.39763 16.3587C7.59658 16.3795 7.79986 16.405 7.99977 16.419C8.08455 16.4247 7.99303 16.418 8.49641 16.4339C9.08892 16.4416 9.51812 16.024 9.68575 15.4854Z" fill="white"/>
<path d="M14.1732 4.00004C14.0142 3.9986 13.8601 4.03521 13.7204 4.10506C13.4169 4.25439 13.2917 4.46104 13.1616 4.75247C13.1375 4.81317 13.1183 4.90613 13.1038 4.97839C13.0219 5.09544 12.94 5.22069 12.863 5.33967C12.7714 5.48033 12.6847 5.62244 12.5884 5.76117C12.2897 6.20434 11.9665 6.6374 11.6727 7.08587C10.282 9.20925 8.74146 11.2146 7.32234 13.3178C6.91626 13.9151 7.07138 14.7335 7.66821 15.1391C8.26554 15.5452 9.08395 15.3901 9.49003 14.7932C10.3181 16.0226 10.5127 16.4262 10.3176 16.0274C10.0575 15.4941 9.85132 14.9031 9.80604 14.3115C9.7911 14.1193 10.0402 14.0013 10.1519 13.8447C10.3995 13.4989 10.5941 13.2253 10.8446 12.8813C11.5662 11.89 12.3235 10.8923 12.9063 9.81042C13.1038 9.44914 13.2628 9.07822 13.4506 8.71164C13.6578 8.29882 13.8697 7.88648 14.0817 7.47702C14.1684 7.73377 14.2455 7.99823 14.3515 8.24487C15.2474 10.3051 16.3987 12.2792 17.5741 14.1911C17.9594 14.8202 18.3111 15.4517 18.6579 16.1025C18.788 16.3496 18.9181 16.6011 19.0626 16.8405C19.1011 16.905 19.1348 16.9368 19.1686 16.9759C19.1204 16.9999 19.0866 17.0168 18.9903 17.0361C18.8506 17.064 18.6917 17.0871 18.552 17.0963C17.8198 17.1435 17.0731 17.063 16.3409 17.0361C16.1627 17.0298 16.0037 17.026 15.8255 17.0211C15.6521 17.0158 15.4738 17.0086 15.3004 17.0062C14.4382 16.9932 13.5711 17.0154 12.7136 17.0813C12.5402 17.0944 12.3716 17.0934 12.1982 17.1112C12.0224 17.1295 11.8075 17.3025 11.6727 17.1864C10.8523 16.4845 11.1457 17.2471 11.1457 17.2471C13.3591 17.1483 15.4449 17.3646 17.6319 17.6382C18.2003 17.709 19.5154 17.9065 19.8911 17.3222C19.9682 17.2042 20.0115 17.0895 19.9971 16.9455C19.9778 16.7581 19.8429 16.6367 19.7418 16.4941C19.6406 16.3516 19.4817 15.9185 19.4094 15.7566C19.3564 15.6314 19.2986 15.5057 19.2456 15.38C19.1926 15.2533 19.1348 15.1155 19.077 14.9888C18.8073 14.3669 18.4845 13.7773 18.1907 13.1675C17.4874 11.7238 16.8467 10.243 16.2783 8.74151C16.1434 8.37782 15.9941 8.01268 15.8737 7.64273C15.6232 6.88115 15.5124 6.07284 15.3149 5.29439C15.2185 4.91481 15.127 4.50632 14.8187 4.2409C14.6887 4.12914 14.5345 4.05206 14.3659 4.01497C14.3659 4.01304 14.337 4.01738 14.3225 4.01497C14.2695 4.00726 14.1732 4.00004 14.1732 4.00004Z" fill="white"/>
</svg>
