<svg width="121" height="119" viewBox="0 0 121 119" fill="none" xmlns="http://www.w3.org/2000/svg">
<path d="M103.71 109.862C74.907 133.785 -8.34435 109.73 0.680189 49.4939C9.70473 -10.7423 46.1037 21.946 85.9621 0C122.436 19.5076 133.867 84.9501 103.71 109.928V109.862Z" fill="#8A63D2"/>
<path d="M64.3912 36.1332C63.0431 35.7914 61.0173 38.4067 60.27 39.224C58.0647 41.6344 55.9657 44.1324 53.9747 46.7223C52.9692 48.0285 52.0094 49.5117 50.7108 50.5572C48.903 52.0135 46.7252 50.1486 45.1023 49.2408C44.8679 49.1104 44.6499 48.9679 44.4155 48.84C44.1591 48.7008 43.888 48.3431 43.6133 48.4393C42.7945 48.7267 43.0711 48.5243 42.8128 48.5539C42.8604 49.4058 42.9832 51.1796 43.0418 50.4427C43.0931 49.7817 43.1132 48.9906 43.5565 48.4966C43.7506 48.2803 44.0583 48.8521 44.3001 49.0119C45.0877 49.5298 45.8625 50.0363 46.6482 50.5572C48.7546 51.9554 50.0184 52.2998 52.0277 50.4999C54.0517 48.6882 55.7825 46.473 57.6947 44.5471C58.6252 43.6082 59.5887 42.6691 60.5558 41.7425C61.3635 40.9696 62.2244 40.1787 63.0742 39.453C63.0706 39.4909 63.0779 39.5295 63.0742 39.5674C63.0028 40.2565 62.9387 40.9412 62.8453 41.628C62.7977 41.9835 62.7262 42.3035 62.6749 42.6583C62.5211 43.689 62.316 44.7189 62.1584 45.7492C61.8123 48.0413 61.7518 50.368 61.5284 52.6751C61.195 56.1444 60.8213 59.621 60.499 63.0919C60.1308 67.061 59.9696 71.0961 59.5264 75.0542C59.5136 75.1605 59.4806 75.2887 59.4696 75.3986C58.1417 71.9899 56.8266 68.5135 54.603 65.6104C53.5864 64.2825 52.0973 62.7073 50.425 62.2329C47.7179 61.4691 45.2763 62.3538 42.8128 63.3209C42.833 62.9252 42.8495 62.5149 42.8696 62.1193C42.9502 60.4818 43.0803 58.8345 43.1553 57.1968C43.3037 53.9816 43.126 57.2248 43.2707 52.8467C43.2982 50.1018 41.0929 47.8374 38.3473 47.8098C35.6036 47.7821 33.3378 49.9874 33.3104 52.7322C33.9075 52.4341 34.0156 52.4449 34.5119 52.2172C34.1163 52.5507 33.7133 52.909 33.3104 53.1901C33.1675 53.2902 33.3159 53.531 33.3104 53.7052C33.303 53.9178 33.3195 54.1224 33.3104 54.3349C33.3012 54.5761 33.2646 54.8377 33.2536 55.0789C33.184 56.5913 33.1071 58.0892 33.0246 59.6008C32.8689 62.4252 32.7389 65.2441 32.6803 68.0721C32.6345 70.3891 32.6034 72.7482 34.4551 74.3692C37.7447 77.2467 41.5856 74.4095 44.6444 72.7647C45.7929 72.1474 46.9706 71.5796 48.1355 70.9917C49.4854 72.1859 50.4763 74.1146 51.2841 75.5708C52.4691 77.7064 53.526 79.8806 54.7752 81.9814C55.1158 82.5529 55.3246 83.1976 55.691 83.7544C57.1471 85.9707 59.3982 86.8883 61.8159 85.5293C65.1879 83.6336 65.2118 77.4628 65.1916 74.197C65.1367 65.0023 65.155 55.8019 65.1916 46.6077C65.2044 43.7426 65.6532 40.8992 65.5927 38.0221C65.5762 37.2428 65.1934 36.3363 64.3912 36.1332ZM42.8128 48.5539C42.8 48.3219 42.7542 48.0387 42.7542 48.0387C42.7561 48.0387 41.9648 48.651 42.8128 48.5539Z" fill="white"/>
<path d="M73.6646 45.6348C72.4411 45.2828 71.0875 45.3714 69.886 46.0356C67.4829 47.3635 66.6111 50.3871 67.939 52.7895C68.3731 53.6108 68.7504 54.6209 69.3127 55.3653C70.2395 56.5914 71.0784 57.5685 71.6608 59.0276C73.1573 62.7879 73.1078 67.0117 73.2067 70.9918C75.6226 66.0885 77.914 61.1102 78.3572 55.5942C78.4452 54.507 78.5679 53.3025 78.414 52.2173C78.1997 50.6901 77.392 49.2947 76.6392 47.9815C75.9762 46.7805 74.8863 45.9868 73.6646 45.6348Z" fill="white"/>
<path d="M81.8492 39.5102C80.5854 39.3644 79.2611 39.6879 78.1859 40.5407C76.0356 42.2461 75.6802 45.3727 77.3855 47.5235C78.1218 48.4828 78.6951 49.6001 79.5029 50.4999C80.3124 51.4016 81.2026 52.1444 81.8492 53.1902C84.7834 57.9303 84.2999 63.7642 82.765 68.8744C87.1609 63.4894 89.4614 57.0331 88.7763 50.042C88.6463 48.7244 88.5126 47.2963 88.0877 46.0355C87.4961 44.275 86.322 42.7602 85.1699 41.3418C84.3163 40.2665 83.113 39.6562 81.8492 39.5102Z" fill="white"/>
<path d="M91.865 32.2983C90.669 31.8672 89.3301 31.8857 88.0864 32.47C85.6027 33.6383 84.5147 36.6257 85.6833 39.1096C86.6193 41.1434 87.3592 43.2225 88.2018 45.2913C89.0553 47.386 89.9162 49.4289 90.4345 51.6447C92.6526 61.1229 90.4364 70.8599 85.4543 79.0619C93.4018 70.9954 97.6237 60.3738 97.8746 49.069C97.9204 47.005 97.935 44.8145 97.5888 42.7728C97.1181 39.9913 95.9349 37.3943 94.7278 34.874C94.1435 33.6319 93.0611 32.7293 91.865 32.2983Z" fill="white"/>
</svg>
