<svg width="55" height="55" viewBox="0 0 55 55" fill="none" xmlns="http://www.w3.org/2000/svg">
<g clip-path="url(#clip0_2051_9164)">
<path d="M27.5 55C42.7397 55 55 42.7397 55 27.5C55 12.2603 42.7397 0 27.5 0C12.2603 0 0 12.2603 0 27.5C0 42.7397 12.2603 55 27.5 55Z" fill="#632ADB"/>
<path d="M28 6C15.856 6 6 15.856 6 28C6 40.144 15.856 50 28 50C40.144 50 50 40.144 50 28C50 15.856 40.144 6 28 6ZM28 45.6C18.276 45.6 10.4 37.724 10.4 28C10.4 23.93 11.786 20.19 14.118 17.22L38.78 41.882C35.81 44.214 32.07 45.6 28 45.6ZM41.882 38.78L17.22 14.118C20.19 11.786 23.93 10.4 28 10.4C37.724 10.4 45.6 18.276 45.6 28C45.6 32.07 44.214 35.81 41.882 38.78Z" fill="white"/>
</g>
<defs>
<clipPath id="clip0_2051_9164">
<rect width="55" height="55" fill="white"/>
</clipPath>
</defs>
</svg>
