<svg width="55" height="55" viewBox="0 0 55 55" fill="none" xmlns="http://www.w3.org/2000/svg">
<g clip-path="url(#clip0_2050_10022)">
<path d="M54.1774 34.1524C50.5048 48.8845 35.5832 57.8504 20.8491 54.1768C6.12126 50.5038 -2.8445 35.5815 0.829933 20.8504C4.50115 6.1165 19.4226 -2.84993 34.152 0.822897C48.885 4.49572 57.8505 19.4197 54.1769 34.1527L54.1774 34.1524Z" fill="#632ADB"/>
<path fill-rule="evenodd" clip-rule="evenodd" d="M39.8005 24.3226C40.5526 20.6995 37.8813 18.5789 34.1511 17.0546L35.6637 12.1745L32.693 11.2543L31.2206 16.0058C30.4396 15.7637 29.6366 15.5318 28.8386 15.3018L30.3215 10.5189L27.3527 9.59873L25.8397 14.4772C25.1926 14.2911 24.5571 14.1073 23.9413 13.9167L23.9456 13.9014L19.8491 12.6301L18.8666 15.803C18.8666 15.803 21.0731 16.4411 21.0242 16.47C22.2271 16.8432 22.4023 17.6632 22.3297 18.3013L20.6067 23.8609C20.6895 23.8869 20.7968 23.9239 20.9143 23.979L20.8281 23.9523C20.7549 23.9295 20.6786 23.9058 20.6003 23.8823L18.1855 31.6704C18.0156 32.0327 17.6059 32.5676 16.7647 32.3084C16.7925 32.3538 14.6056 31.6387 14.6056 31.6387L12.9157 35.0034L16.7815 36.2014C17.2048 36.3332 17.6229 36.4677 18.0367 36.6008L18.0375 36.6011C18.3264 36.694 18.6133 36.7863 18.8985 36.8765L17.37 41.8126L20.3371 42.7327L21.8506 37.849C22.6601 38.1185 23.4464 38.3692 24.2165 38.6073L22.7086 43.4678L25.6794 44.3881L27.2072 39.4613C32.2902 40.7227 36.1753 40.5481 38.0628 35.9926C39.5836 32.3249 38.3296 30.0896 35.7058 28.5302C37.7001 28.1869 39.2557 26.9755 39.8016 24.3231L39.8005 24.3226ZM32.3736 33.5882C31.3262 36.9727 26.0331 35.2512 23.6113 34.4636C23.3935 34.3927 23.1989 34.3295 23.0327 34.2781L25.0603 27.7388C25.2628 27.8017 25.5107 27.8721 25.7915 27.9519C28.3022 28.6656 33.4462 30.128 32.3736 33.5882ZM26.4748 24.9024C28.4935 25.5647 32.8974 27.0095 33.8516 23.9335C34.8262 20.7875 30.5355 19.581 28.4399 18.9918C28.2041 18.9255 27.9961 18.867 27.8265 18.8145L25.9881 24.7453C26.1277 24.7885 26.2914 24.8422 26.4748 24.9024Z" fill="white"/>
</g>
<defs>
<clipPath id="clip0_2050_10022">
<rect width="55" height="55" fill="white"/>
</clipPath>
</defs>
</svg>
