<svg width="55" height="55" viewBox="0 0 55 55" fill="none" xmlns="http://www.w3.org/2000/svg">
<g clip-path="url(#clip0_2050_10026)">
<path d="M27.5 55C42.6878 55 55 42.6878 55 27.5C55 12.3122 42.6878 0 27.5 0C12.3122 0 0 12.3122 0 27.5C0 42.6878 12.3122 55 27.5 55Z" fill="#632ADB"/>
<path d="M27.4253 11L27.2065 11.7431V33.3039L27.4253 33.5221L37.4334 27.6062L27.4253 11Z" fill="#F4F4F4"/>
<path d="M27.4249 11L17.4165 27.6062L27.4249 33.5221V23.0571V11Z" fill="#E6E6E6"/>
<path d="M27.425 35.4169L27.3018 35.5673V43.2476L27.425 43.6075L37.4393 29.5042L27.425 35.4169Z" fill="#E9E9E9"/>
<path d="M27.4249 43.6075V35.4169L17.4165 29.5042L27.4249 43.6075Z" fill="white"/>
<path d="M27.4248 33.5221L37.4329 27.6063L27.4248 23.0571V33.5221Z" fill="#D9D9D9"/>
<path d="M17.4165 27.6063L27.4249 33.5221V23.0571L17.4165 27.6063Z" fill="#DFDFDF"/>
</g>
<defs>
<clipPath id="clip0_2050_10026">
<rect width="55" height="55" fill="white"/>
</clipPath>
</defs>
</svg>
