<svg width="55" height="55" viewBox="0 0 55 55" fill="none" xmlns="http://www.w3.org/2000/svg">
<rect width="55" height="55" rx="27.5" fill="#632ADB"/>
<g clip-path="url(#clip0_2050_10018)">
<path d="M27.4999 13.0613C23.0239 13.0613 12 24.0413 12 28.4999C12 32.9585 23.0239 43.9387 27.4999 43.9387C31.9759 43.9387 43 32.9583 43 28.4999C43 24.0415 31.9761 13.0613 27.4999 13.0613ZM25.0845 37.3283C23.197 36.816 18.1223 27.9741 18.6367 26.0941C19.1512 24.2139 28.028 19.1594 29.9154 19.6718C31.803 20.1841 36.8777 29.0258 36.3633 30.9059C35.8489 32.786 26.972 37.8406 25.0845 37.3283Z" fill="white"/>
</g>
<defs>
<clipPath id="clip0_2050_10018">
<rect width="31" height="30.8775" fill="white" transform="translate(12 13.0613)"/>
</clipPath>
</defs>
</svg>
