<svg width="635" height="79" viewBox="0 0 635 79" fill="none" xmlns="http://www.w3.org/2000/svg">
<g filter="url(#filter0_d_404_516)">
<path d="M24.1172 42.749V50.293H44.2344C47.5872 50.293 49.2637 49.0189 49.2637 46.4707C49.2637 43.9896 47.5872 42.749 44.2344 42.749H24.1172ZM4 20.1172V0H44.2344C60.9987 0 69.3809 7.56071 69.3809 22.6821C69.3809 27.6779 67.7044 31.8522 64.3516 35.2051C67.7044 38.5579 69.3809 42.8496 69.3809 48.0801C69.3809 62.9668 60.9987 70.4102 44.2344 70.4102H4V25.1465H24.1172V27.6611H44.2344C47.5872 27.6611 49.2637 26.4206 49.2637 23.9395C49.2637 21.3913 47.5872 20.1172 44.2344 20.1172H4ZM90.4033 60.3516L86.8828 70.4102H66.7656L91.9121 0H112.029L137.176 70.4102H117.059L113.488 60.3516H90.4033ZM107 40.2344L101.971 25.1465L96.9414 40.2344H107ZM176.907 25.1465C193.672 25.1465 202.054 32.6234 202.054 47.5771C202.054 62.7992 193.672 70.4102 176.907 70.4102H136.673L146.731 50.293H176.907C180.26 50.293 181.937 49.3877 181.937 47.5771C181.937 46.0348 180.26 45.2637 176.907 45.2637H161.819C146.094 45.2637 137.746 38.5579 136.773 25.1465H176.907ZM136.723 20.1172C137.561 6.70573 145.927 0 161.819 0H202.054L191.995 20.1172H136.723ZM206.077 20.1172V0H266.429L256.37 20.1172H206.077ZM266.429 25.1465L256.37 45.2637H226.194V50.293H266.429L256.37 70.4102H206.077V25.1465H266.429ZM297.007 20.1172V0H337.241C354.006 0 362.388 8.38216 362.388 25.1465C362.388 41.9108 354.006 50.293 337.241 50.293H317.124V70.4102H297.007V25.1465H317.124V30.1758H337.241C340.594 30.1758 342.271 28.4993 342.271 25.1465C342.271 21.7936 340.594 20.1172 337.241 20.1172H297.007ZM426.461 50.293V70.4102H396.285C376.168 70.4102 366.109 58.6751 366.109 35.2051V0H386.227V35.2051C386.227 45.2637 389.579 50.293 396.285 50.293H426.461ZM406.344 45.2637V0H426.461V45.2637H406.344ZM455.832 35.2051V70.4102H435.715V0H455.832L480.979 35.2051V0H501.096V70.4102H480.979L455.832 35.2051ZM530.467 25.1465L550.584 0H575.73L546.862 35.2051L575.73 70.4102H550.584L530.467 45.2637V70.4102H510.35V0H530.467V25.1465ZM582.771 45.2637L595.345 20.1172H570.198L580.257 0H630.55L607.918 45.2637H582.771ZM630.55 50.293L620.491 70.4102H570.198L580.257 50.293H630.55Z" fill="black"/>
</g>
<defs>
<filter id="filter0_d_404_516" x="0" y="0" width="634.55" height="78.4102" filterUnits="userSpaceOnUse" color-interpolation-filters="sRGB">
<feFlood flood-opacity="0" result="BackgroundImageFix"/>
<feColorMatrix in="SourceAlpha" type="matrix" values="0 0 0 0 0 0 0 0 0 0 0 0 0 0 0 0 0 0 127 0" result="hardAlpha"/>
<feOffset dy="4"/>
<feGaussianBlur stdDeviation="2"/>
<feComposite in2="hardAlpha" operator="out"/>
<feColorMatrix type="matrix" values="0 0 0 0 0 0 0 0 0 0 0 0 0 0 0 0 0 0 0.25 0"/>
<feBlend mode="normal" in2="BackgroundImageFix" result="effect1_dropShadow_404_516"/>
<feBlend mode="normal" in="SourceGraphic" in2="effect1_dropShadow_404_516" result="shape"/>
</filter>
</defs>
</svg>
